solid OpenSCAD_Model
  facet normal 1 -0 0
    outer loop
      vertex 16.8 0 18
      vertex 16.8 33 0
      vertex 16.8 33 18
    endloop
  endfacet
  facet normal 1 0 0
    outer loop
      vertex 16.8 33 0
      vertex 16.8 0 18
      vertex 16.8 0 0
    endloop
  endfacet
  facet normal 0 0 1
    outer loop
      vertex 16.8 33 18
      vertex 14.8 31 18
      vertex 16.8 0 18
    endloop
  endfacet
  facet normal 0 0 1
    outer loop
      vertex 16.8 33 18
      vertex 2 31 18
      vertex 14.8 31 18
    endloop
  endfacet
  facet normal 0 0 1
    outer loop
      vertex 2 31 18
      vertex 0 33 18
      vertex 2 2 18
    endloop
  endfacet
  facet normal -0 0 1
    outer loop
      vertex 0 33 18
      vertex 2 31 18
      vertex 16.8 33 18
    endloop
  endfacet
  facet normal -0 0 1
    outer loop
      vertex 14.8 2 18
      vertex 16.8 0 18
      vertex 14.8 31 18
    endloop
  endfacet
  facet normal -0 0 1
    outer loop
      vertex 2 2 18
      vertex 16.8 0 18
      vertex 14.8 2 18
    endloop
  endfacet
  facet normal 0 0 1
    outer loop
      vertex 2 2 18
      vertex 0 0 18
      vertex 16.8 0 18
    endloop
  endfacet
  facet normal 0 0 1
    outer loop
      vertex 0 0 18
      vertex 2 2 18
      vertex 0 33 18
    endloop
  endfacet
  facet normal 0 0 -1
    outer loop
      vertex 0 0 0
      vertex 16.8 33 0
      vertex 16.8 0 0
    endloop
  endfacet
  facet normal -0 0 -1
    outer loop
      vertex 16.8 33 0
      vertex 0 0 0
      vertex 0 33 0
    endloop
  endfacet
  facet normal -1 0 0
    outer loop
      vertex 0 0 0
      vertex 0 33 18
      vertex 0 33 0
    endloop
  endfacet
  facet normal -1 -0 0
    outer loop
      vertex 0 33 18
      vertex 0 0 0
      vertex 0 0 18
    endloop
  endfacet
  facet normal 0 1 -0
    outer loop
      vertex 16.8 33 0
      vertex 0 33 18
      vertex 16.8 33 18
    endloop
  endfacet
  facet normal 0 1 0
    outer loop
      vertex 0 33 18
      vertex 16.8 33 0
      vertex 0 33 0
    endloop
  endfacet
  facet normal 0 -1 0
    outer loop
      vertex 0 0 0
      vertex 16.8 0 18
      vertex 0 0 18
    endloop
  endfacet
  facet normal 0 -1 -0
    outer loop
      vertex 16.8 0 18
      vertex 0 0 0
      vertex 16.8 0 0
    endloop
  endfacet
  facet normal -1 0 0
    outer loop
      vertex 14.8 2 6
      vertex 14.8 31 18
      vertex 14.8 31 6
    endloop
  endfacet
  facet normal -1 -0 0
    outer loop
      vertex 14.8 31 18
      vertex 14.8 2 6
      vertex 14.8 2 18
    endloop
  endfacet
  facet normal -0 0 1
    outer loop
      vertex 2 31 6
      vertex 14.8 2 6
      vertex 14.8 31 6
    endloop
  endfacet
  facet normal 0 0 1
    outer loop
      vertex 14.8 2 6
      vertex 2 31 6
      vertex 2 2 6
    endloop
  endfacet
  facet normal 1 -0 0
    outer loop
      vertex 2 2 18
      vertex 2 31 6
      vertex 2 31 18
    endloop
  endfacet
  facet normal 1 0 0
    outer loop
      vertex 2 31 6
      vertex 2 2 18
      vertex 2 2 6
    endloop
  endfacet
  facet normal 0 -1 0
    outer loop
      vertex 2 31 6
      vertex 14.8 31 18
      vertex 2 31 18
    endloop
  endfacet
  facet normal 0 -1 -0
    outer loop
      vertex 14.8 31 18
      vertex 2 31 6
      vertex 14.8 31 6
    endloop
  endfacet
  facet normal 0 1 -0
    outer loop
      vertex 14.8 2 6
      vertex 2 2 18
      vertex 14.8 2 18
    endloop
  endfacet
  facet normal 0 1 0
    outer loop
      vertex 2 2 18
      vertex 14.8 2 6
      vertex 2 2 6
    endloop
  endfacet
endsolid OpenSCAD_Model
