solid OpenSCAD_Model
  facet normal 1 -0 0
    outer loop
      vertex 14.8 0 14
      vertex 14.8 35.45 0
      vertex 14.8 35.45 14
    endloop
  endfacet
  facet normal 1 0 0
    outer loop
      vertex 14.8 35.45 0
      vertex 14.8 0 14
      vertex 14.8 0 0
    endloop
  endfacet
  facet normal 0 0 1
    outer loop
      vertex 14.8 35.45 14
      vertex 12.8 33.45 14
      vertex 14.8 0 14
    endloop
  endfacet
  facet normal 0 0 1
    outer loop
      vertex 14.8 35.45 14
      vertex 2 33.45 14
      vertex 12.8 33.45 14
    endloop
  endfacet
  facet normal 0 0 1
    outer loop
      vertex 2 33.45 14
      vertex 0 35.45 14
      vertex 2 2 14
    endloop
  endfacet
  facet normal -0 0 1
    outer loop
      vertex 0 35.45 14
      vertex 2 33.45 14
      vertex 14.8 35.45 14
    endloop
  endfacet
  facet normal -0 0 1
    outer loop
      vertex 12.8 2 14
      vertex 14.8 0 14
      vertex 12.8 33.45 14
    endloop
  endfacet
  facet normal -0 0 1
    outer loop
      vertex 2 2 14
      vertex 14.8 0 14
      vertex 12.8 2 14
    endloop
  endfacet
  facet normal 0 0 1
    outer loop
      vertex 2 2 14
      vertex 0 0 14
      vertex 14.8 0 14
    endloop
  endfacet
  facet normal 0 0 1
    outer loop
      vertex 0 0 14
      vertex 2 2 14
      vertex 0 35.45 14
    endloop
  endfacet
  facet normal 0 0 -1
    outer loop
      vertex 0 0 0
      vertex 14.8 35.45 0
      vertex 14.8 0 0
    endloop
  endfacet
  facet normal -0 0 -1
    outer loop
      vertex 14.8 35.45 0
      vertex 0 0 0
      vertex 0 35.45 0
    endloop
  endfacet
  facet normal -1 0 0
    outer loop
      vertex 0 0 0
      vertex 0 35.45 14
      vertex 0 35.45 0
    endloop
  endfacet
  facet normal -1 -0 0
    outer loop
      vertex 0 35.45 14
      vertex 0 0 0
      vertex 0 0 14
    endloop
  endfacet
  facet normal 0 1 -0
    outer loop
      vertex 14.8 35.45 0
      vertex 0 35.45 14
      vertex 14.8 35.45 14
    endloop
  endfacet
  facet normal 0 1 0
    outer loop
      vertex 0 35.45 14
      vertex 14.8 35.45 0
      vertex 0 35.45 0
    endloop
  endfacet
  facet normal 0 -1 0
    outer loop
      vertex 0 0 0
      vertex 14.8 0 14
      vertex 0 0 14
    endloop
  endfacet
  facet normal 0 -1 -0
    outer loop
      vertex 14.8 0 14
      vertex 0 0 0
      vertex 14.8 0 0
    endloop
  endfacet
  facet normal -1 0 0
    outer loop
      vertex 12.8 2 2
      vertex 12.8 33.45 14
      vertex 12.8 33.45 2
    endloop
  endfacet
  facet normal -1 -0 0
    outer loop
      vertex 12.8 33.45 14
      vertex 12.8 2 2
      vertex 12.8 2 14
    endloop
  endfacet
  facet normal -0 0 1
    outer loop
      vertex 2 33.45 2
      vertex 12.8 2 2
      vertex 12.8 33.45 2
    endloop
  endfacet
  facet normal 0 0 1
    outer loop
      vertex 12.8 2 2
      vertex 2 33.45 2
      vertex 2 2 2
    endloop
  endfacet
  facet normal 1 -0 0
    outer loop
      vertex 2 2 14
      vertex 2 33.45 2
      vertex 2 33.45 14
    endloop
  endfacet
  facet normal 1 0 0
    outer loop
      vertex 2 33.45 2
      vertex 2 2 14
      vertex 2 2 2
    endloop
  endfacet
  facet normal 0 -1 0
    outer loop
      vertex 2 33.45 2
      vertex 12.8 33.45 14
      vertex 2 33.45 14
    endloop
  endfacet
  facet normal 0 -1 -0
    outer loop
      vertex 12.8 33.45 14
      vertex 2 33.45 2
      vertex 12.8 33.45 2
    endloop
  endfacet
  facet normal 0 1 -0
    outer loop
      vertex 12.8 2 2
      vertex 2 2 14
      vertex 12.8 2 14
    endloop
  endfacet
  facet normal 0 1 0
    outer loop
      vertex 2 2 14
      vertex 12.8 2 2
      vertex 2 2 2
    endloop
  endfacet
endsolid OpenSCAD_Model
